<?xml version="1.0" encoding="iso-8859-1"?>
<!-- Generator: Adobe Illustrator 19.0.0, SVG Export Plug-In . SVG Version: 6.00 Build 0)  -->
<svg version="1.1" id="Layer_1" xmlns="http://www.w3.org/2000/svg" xmlns:xlink="http://www.w3.org/1999/xlink" x="0px" y="0px"
	 viewBox="0 0 324 324" style="enable-background:new 0 0 324 324;" xml:space="preserve">
<path style="fill:#FF6600;" d="M255.8,100.6h-3.4c-1.2,0-3-1.8-3-3V64.8c0-29.7-23.8-53.8-53-53.8H69.2c-29.2,0-53,24.1-53,53.8
	v194.4c0,29.7,23.8,53.8,53,53.8h185.6c29.2,0,53-24.1,53-53.8v-104C307.8,126,284.5,101.5,255.8,100.6z M93.2,67.4h74.4
	c14.9,0,27,12.1,27,27c0,14.4-11.9,26.3-27.1,27H93.2c-14.9,0-27-12.1-27-27S78.3,67.4,93.2,67.4z M241.1,250.2H92.4
	c-14.9,0-27-12.1-27-27s12.1-27,27-27h148c14.9,0,27,12.1,27,27C267.4,237.6,255.8,249.4,241.1,250.2z"/>
<path style="fill:#FF7D00;" d="M69.2,300c-21.6,0-40-18.4-40-40.8V64.8c0-22.4,17.6-40.8,40-40.8h126.4c21.6,0,40,18.4,40,40.8v32.8
	c0,8.8,7.2,16,16,16h3.2c21.6,0,40,18.4,40,40.8v104c0,22.4-17.6,40.8-40,40.8H69.2V300z M92.4,183.2c-21.6,0-40,17.6-40,40
	s17.6,40,40,40h148.8c21.6,0,40-17.6,40-40s-17.6-40-40-40H92.4z M93.2,54.4c-21.6,0-40,17.6-40,40s17.6,40,40,40h74.4
	c21.6,0,40-17.6,40-40s-17.6-40-40-40H93.2z"/>
<g>
	<path style="fill:#42210B;" d="M183.6,94.4c0-8.8-7.2-16-16-16H93.2c-8.8,0-16,7.2-16,16s7.2,16,16,16h74.4
		C176.4,109.6,183.6,103.2,183.6,94.4z M167.6,62.4c17.6,0,32,14.4,32,32s-14.4,32-32,32H93.2c-17.6,0-32-14.4-32-32s14.4-32,32-32
		H167.6z"/>
	<path style="fill:#42210B;" d="M256.4,223.2c0-8.8-7.2-16-16-16h-148c-8.8,0-16,7.2-16,16s7.2,16,16,16h148.8
		C249.2,238.4,256.4,231.2,256.4,223.2z M240.4,191.2c17.6,0,32,14.4,32,32s-14.4,32-32,32h-148c-17.6,0-32-14.4-32-32
		s14.4-32,32-32H240.4z"/>
	<path style="fill:#42210B;" d="M302.8,259.2v-104c0-27.2-21.6-48.8-48-48.8h-3.2c-4,0-8-4-8-8V65.6c0-27.2-21.6-48.8-48-48.8H69.2
		c-26.4,0-48,21.6-48,48.8V260c0,27.2,21.6,48.8,48,48.8h185.6C281.2,308,302.8,286.4,302.8,259.2z M318.8,155.2v104
		c0,36-28.8,64.8-64,64.8H69.2c-35.2,0-64-28.8-64-64.8V64.8C5.2,28.8,34,0,69.2,0h127.2c35.2,0,64,28.8,64,64.8v25.6
		C293.2,92.8,318.8,120.8,318.8,155.2z"/>
</g>
<g>
</g>
<g>
</g>
<g>
</g>
<g>
</g>
<g>
</g>
<g>
</g>
<g>
</g>
<g>
</g>
<g>
</g>
<g>
</g>
<g>
</g>
<g>
</g>
<g>
</g>
<g>
</g>
<g>
</g>
</svg>
